<?xml version="1.0" standalone="no"?>
<!DOCTYPE svg PUBLIC "-//W3C//DTD SVG 20010904//EN"
 "http://www.w3.org/TR/2001/REC-SVG-20010904/DTD/svg10.dtd">
<svg version="1.0" xmlns="http://www.w3.org/2000/svg"
 width="512.000000pt" height="512.000000pt" viewBox="0 0 512.000000 512.000000"
 preserveAspectRatio="xMidYMid meet">
<metadata>
Created by potrace 1.11, written by Peter Selinger 2001-2013
</metadata>
<g transform="translate(0.000000,512.000000) scale(0.100000,-0.100000)"
fill="#000000" stroke="none">
<path d="M2408 5114 c-2 -1 -39 -5 -83 -9 -147 -12 -433 -72 -525 -109 -19 -8
-69 -27 -110 -42 -108 -40 -250 -109 -365 -177 -90 -55 -222 -144 -252 -171
-6 -6 -26 -22 -44 -36 -18 -14 -62 -52 -97 -85 -323 -302 -532 -625 -667
-1030 -59 -177 -94 -346 -112 -535 -13 -139 -6 -500 12 -553 2 -6 6 -30 9 -52
31 -251 160 -606 311 -854 75 -125 198 -294 255 -351 95 -97 103 -108 106
-162 21 -282 129 -520 314 -692 34 -31 74 -65 89 -74 14 -9 28 -19 31 -22 11
-11 68 -42 128 -71 204 -94 407 -110 672 -50 74 16 146 32 160 35 250 47 339
89 401 185 12 19 25 24 74 28 57 3 257 28 300 37 879 173 1588 808 1854 1661
33 104 74 291 86 385 4 30 9 69 12 85 8 62 10 394 2 461 -16 136 -20 160 -30
214 -143 767 -633 1410 -1331 1748 -57 27 -143 64 -193 82 -49 18 -99 36 -110
41 -26 10 -133 40 -165 45 -14 3 -38 9 -55 14 -16 5 -43 11 -60 14 -16 2 -59
9 -95 14 -125 20 -186 25 -352 27 -92 1 -169 1 -170 -1z"/>
</g>
</svg>
