<?xml version="1.0" standalone="no"?>
<!DOCTYPE svg PUBLIC "-//W3C//DTD SVG 20010904//EN"
 "http://www.w3.org/TR/2001/REC-SVG-20010904/DTD/svg10.dtd">
<svg version="1.0" xmlns="http://www.w3.org/2000/svg"
 width="512.000000pt" height="512.000000pt" viewBox="0 0 512.000000 512.000000"
 preserveAspectRatio="xMidYMid meet">
<metadata>
Created by potrace 1.11, written by Peter Selinger 2001-2013
</metadata>
<g transform="translate(0.000000,512.000000) scale(0.100000,-0.100000)"
fill="#000000" stroke="none">
<path d="M2388 4665 c-2 -2 -28 -6 -58 -10 -30 -3 -62 -8 -70 -10 -8 -2 -35
-7 -60 -10 -201 -28 -526 -156 -730 -290 -188 -123 -375 -295 -502 -462 -22
-29 -45 -53 -51 -53 -6 0 -8 -3 -4 -6 3 -3 -17 -40 -46 -82 -115 -172 -250
-491 -281 -667 -3 -16 -13 -73 -23 -125 -11 -65 -17 -154 -17 -285 -1 -211 8
-304 44 -460 6 -27 13 -59 16 -70 14 -71 76 -237 135 -362 140 -297 388 -590
664 -784 158 -111 430 -245 575 -283 260 -68 353 -81 590 -81 128 0 176 3 305
20 104 13 284 61 400 105 405 157 740 427 980 790 197 297 300 600 330 970 3
39 7 222 5 230 -1 3 -3 25 -6 50 -4 51 -14 137 -19 160 -2 8 -6 35 -9 60 -10
68 -53 225 -87 320 -32 87 -129 295 -160 340 -9 14 -40 60 -69 103 -28 43 -60
88 -70 100 -10 12 -35 42 -55 67 -72 88 -234 247 -285 281 -14 10 -34 25 -45
36 -11 10 -44 34 -73 52 -30 19 -59 39 -66 45 -29 27 -270 149 -348 176 -36
14 -64 29 -61 34 3 5 1 6 -4 3 -9 -6 -89 12 -133 30 -8 3 -21 7 -29 9 -42 8
-118 26 -131 31 -8 3 -35 7 -60 9 -25 2 -72 8 -105 13 -54 8 -380 13 -387 6z"/>
</g>
</svg>
